<?xml version="1.0" standalone="no"?>
<!DOCTYPE svg PUBLIC "-//W3C//DTD SVG 20010904//EN"
 "http://www.w3.org/TR/2001/REC-SVG-20010904/DTD/svg10.dtd">
<svg version="1.0" xmlns="http://www.w3.org/2000/svg"
 width="159.000000pt" height="67.000000pt" viewBox="0 0 159.000000 67.000000"
 preserveAspectRatio="xMidYMid meet">
<metadata>
Created by potrace 1.16, written by Peter Selinger 2001-2019
</metadata>
<g transform="translate(0.000000,67.000000) scale(0.100000,-0.100000)"
fill="#000000" stroke="none">
<path d="M667 483 c-42 -104 -79 -196 -82 -205 -7 -17 3 -18 129 -18 l136 0 0
-55 0 -55 60 0 60 0 0 55 c0 52 1 55 25 55 24 0 25 3 25 55 0 52 -1 55 -25 55
l-25 0 0 100 0 100 -60 0 -60 0 0 -100 0 -100 -51 0 c-37 0 -50 3 -46 13 3 6
28 69 56 140 28 70 51 132 51 137 0 6 -26 10 -59 10 l-59 0 -75 -187z"/>
<path d="M1050 509 c0 -201 9 -239 70 -300 52 -52 116 -73 185 -62 55 9 125
61 152 112 22 41 23 55 23 228 l0 183 -57 0 -58 0 -1 -176 0 -177 -34 -30
c-28 -25 -39 -28 -73 -24 -22 3 -49 15 -61 26 -20 20 -21 34 -24 201 l-3 180
-60 0 -59 0 0 -161z"/>
</g>
</svg>
